<svg xmlns="http://www.w3.org/2000/svg" viewBox="0 0 50 50"><circle cx="26.36" cy="25" r="18.006" fill="#4466fb"/><path fill="#6bb5fb" d="M36.23479 9.9403c-.4351.02543-.48549.29306-.35616 1.20074-.59087-.14071-1.16838.40149-1.77065.05003-.03449-.01861-.10509-.00327-.1397-.00435-.58141.10461-.59838.08655-.47311-.55782.02133-.12164.0777-.24261.08097-.3477.00435-.1397.00926-.29734-.02141-.43856l-.07006-.00218c-.1012.43473-.44556.8093-.30429 1.33925-.00163.05255-.11162.20649-.16417.20485-.42104.02195-.75942.20427-.93124.65434-.03612.03394-.09085.10236-.12588.10128-.31649.04274-.54965.21037-.63062.5585-.01926.0691-.16047.09977-.23217.15013-.12424.04873-.21456.13358-.32086.18286-.10673.04927-.23097.09757-.3377.14685-.12436.06625-.21358.11607-.33837.18232.06733.08976.13357.21455.21898.28692.18843.1286.39588.22272.54917.36734.18624.19866.2022.81194.00505.9636-.12534.08376-.35032-.01091-.50644-.05085-.29669-.04388-.55573-.15714-.83554-.16587-.3328-.01036-.51735.29905-.38691.60074.08049.23043.09202.42322-.03769.64711-.16702.30995-.09841.90778.11014.96687.27699.1134.55464.19218.83337.23593.24358.06018.47358-.02031.56989-.29741.26496-.64003.69854-1.06441 1.25255-1.41491.05364-.03339.12533-.08376.16091-.10018-.11771-.16104-.1834-.30334-.26771-.41117.17625-.02957.31583-.00769.45334.06672.25946.11328.50262.17345.6717-.18904.05856-.19103.21576-.18614.33347-.02468.04984.08879.13468.1791.14838.30225.10844.4588.4359.62679.74422.84636.1374.09194.30831.22.35596.37885.04873.12425.02413.35098-.03224.47195-.05528.08594-.23.0805-.37177.12867l-.21019-.00654c-.00055.01752-.01872.05201-.01928.06953.10194.09084.21965.25187.34336.22066.31595-.02523.54139-.50826.5409-1.0689.12151.03885.22606.05964.34705.11558.01804-.01654.0372-.06854.05526-.08552-.22171-.19976-.46159-.36503-.66523-.58134-.28972-.25406-.61718-.42205-.61997-.89509-.03067-.14122-.14674-.3548.0826-.40025.19333-.02904.43801-.00388.42874.29346.00128.50806.31219.65801.63967.82558.13848.05691.27655.11381.36086.22163.08485.09031.15.25013.12977.33674-.11436.29406-.05084.50644.09982.72152.06734.08933.11662.19606.14892.28473.06624.12479.09692.26558.12814.38928.10836-.10182.21522-.16862.32357-.27002.03613-.03394.07225-.06788.09085-.10236.16255-.15273.18344-.27438-.00443-.4205-.11988-.0914-.18517-.23326-.28699-.34164.28747-.2365.53171-.21136.79226-.13311.19159.04104.4194.0306.56281-.07013.05321-.03341-.02413-.35098-.01813-.54365-.01207-.17528-.05807-.3871.01635-.52462.07769-.24304.22393-.44845.352-.61978.12752-.15382.30824-.34062.37775-.32093.19049.07607.3242.27267.44135.45164.10291.07334.14947.26722.25456.2705.12164.02132.28255-.07886.42388-.12663.00163-.05255-.01491-.07059-.01381-.10562-.17297-.07552-.32898-.13298-.50153-.20848l.00326-.10467c.42377-.10952.84809-.23657 1.27239-.36319-.0766.20758-.18551.32692-.29508.48087-.21945.29079-.22327.4134.03194.64928.15383.12709.34324.23819.45996.41715.08378.12491.11171.35371.07176.51026-.02078.10455-.23423.20267-.35642.19886-.20964-.02407-.43474-.10121-.60663-.21133-.39479-.25776-.78025-.25223-1.15475-.03598-.31921.12989-.60383.26129-.90608.40966-.0717.05036-.19649.1166-.19865.18624.09528.31813.15497.65311.30335.95536.03231.08867.32747.168.38165.11708.19934-.22172.30117-.11334.45443.03169.18517.23327.35978.25624.55856.05247.05473-.06843.10783-.0843.12589-.10128.09855.21347.16262.40789.28086.55183.16819.21521.16437.33782-.05138.52353-.14341.10073-.29007.30656-.29498.46376.00769.31583-.09795.33007-.28964.30656-.2611-.06072-.55681-.12254-.80269-.09514-.68596.08383-1.2756-.10987-1.85884-.4958-.11989-.09139-.32801-.15047-.40079-.06508-.10727.06679-.11436.29407-.10176.45226.04165.35152-.04921.45389-.34217.30449-.37839-.22175-.75609-.47897-1.11642-.7177-.3603-.23915-.5608-.54302-.42292-1.02921.06193-.31324-.10789-.47632-.40675-.45057-.17527.01207-.36958.05862-.52516.00117-.5902-.17618-1.11743-.12247-1.6709.21094-.30387.2005-.64061.33027-1.01897.10809-.03449-.01861-.19541.08157-.26819.16697-.18127.20432-.36242.39153-.52769.63142-.11068.18941-.25843.42984-.24691.62305.02194.42105-.07489.71566-.3963.91603-.48231.30014-.76043.7995-.98697 1.318-.07387.12-.11327.25903-.1866.36194-.21793.25577-.22776.57106-.09787.89026.12758.4068.11505.80923-.02076 1.24289-.0777.24262-.14059.57335-.02399.76984.24868.44564.46233.89018.56858 1.41904.01534.07061.04818.14176.09911.19552.28807.30703.55808.6306.86463.92068.23771.2349.5136.38376.81803.16532.32193-.21747.69043-.24106 1.06001-.29967.15764.00491.29886-.02576.42474-.12703.32248-.23499.61711-.13857.88984.09785.17024.1631.30001.49983.62086.3174.01807-.01741.08703.01981.12043.07345.27327.21891.36257.72928.19456 1.05717-.20587.43147-.2332.74578.02094 1.01627.27054.30648.47092.62789.49287 1.04892.01316.14067.0783.30049.14457.42487.31001.72806.34021 1.447-.06597 2.11726-.2966.51631-.32993 1.0233-.06712 1.59211.22789.55018.38506 1.1328.41907 1.72955.02031.47358.12832.93237.30845 1.34081.23117.44509.37463.90498.30574 1.42797-.04704.38425.05478.49261.38881.44999.45607-.02085.89626-.09438 1.33645-.16832.07061-.01534.16037-.08267.23206-.13303.68273-.55646 1.22849-1.20527 1.27708-2.20226.02624-.27929.15212-.38056.36406-.44366.10728-.06679.2337-.18558.27158-.2896.09629-.27708.06944-.54049-.07905-.82563-.04872-.12425-.05807-.38711-.00225-.49056.20097-.27384.43684-.52905.7057-.73107.57371-.42002.90267-1.4258.71471-2.13211-.14456-.42487-.18348-.86396-.27439-1.32222-.16988-.72371.19416-1.16736.67976-1.57302.35915-.28643.73637-.58984.97661-.98518.44012-.63457.8129-1.35847 1.18461-2.04777.09302-.172.10011-.39971.15864-.59031-.19267-.006-.38491-.01199-.54419.03564-.35152.04165-.68825.17099-1.02269.21317-.0877.0148-.20704-.09368-.27383-.20096-.18232-.33837-.36365-.69468-.56294-1.05111-.03176-.10619-.09866-.19593-.16547-.30278-.11387-.28408-.24474-.58578-.34015-.88638-.17468-.5836-.33239-1.14913-.50664-1.73271-.07995-.24752-.12487-.49395-.20438-.74188-.09801-.23055-.19601-.46153-.31155-.69262.12371-.03121.19268.006.22607.05964.31712.49994.61616 1.01728.93314 1.53518.05049.05417.0297.15872.04393.26435.06517.1594.07777.31759.12543.47644.34504.72916.76179 1.40753.78708 2.2841-.0071.2277.12975.33716.37837.22217.19594-.09909.42486-.14456.62079-.24322.31923-.13032.62202-.29621.92632-.4967.28583-.18395.57382-.43754.87759-.62094.42867-.26674.686-.66155.82442-1.16525.0394-.13904-.07613-.37014-.14128-.52996-.06581-.12478-.22127-.19975-.32311-.30769-.20321-.21672-.39425-.27527-.64668-.03768-.21618.1857-.48066.24759-.69856-.07436-.01588-.0531-.10346-.05582-.13698-.09194-.05025-.0888-.1511-.21467-.1314-.28419.11491-.31157.01691-.54256-.16923-.75832-.08485-.0903-.18624-.19867-.23497-.32291-.03175-.10618-.02632-.28091.01144-.3674.05528-.08595.21249-.08105.33401-.04219.27819.06127.37455.34479.47202.59285.22625.60274.36419.67716.92863.55448.08867-.0323.22781-.01043.27819.06084.13454.21296.28824.36607.45769.46791C43.02727 16.60693 40.16742 12.52416 36.23479 9.9403zM9.46444 26.62827c.43072.00975.60354.1201.76122.4944.03324.06971.13783.12773.22836.18772.05527.04086.15799.03591.20272.09083.19747.22887.48545.14156.71424.21347.07183-.11142.11599-.21795.16069-.32437.40274.27667.64451.73527.57194 1.07083-.07364.33504-.14564.66006-.18499.98053-.00613.11388.08596.24554.13218.37403.01683.04675.0785.13416.04918.17819-.07902.27977-.01284.49385.29333.61645.54278.22244.85445.61532 1.15904 1.03466.24611.31964.50693.58464.96721.60775.49349.02771.7192.18143.89621.57444.12286.28164.21654.55893.33994.85424.16759.40938.30381.83007.53761 1.21053.1699.29605.27105.57483.36893.89475.13017.45238.33307.92482.56805 1.3752.037.07999.18305.15069.27443.21278.05006.04945.07332.10783.1027.15065.07074.17504.16154.33004.2563.51056.09603.20704.28035.43741-.10303.53154.30474.02811.45118.13676.52758.35224-.00512.01568.01858.0474.04783.06394.3349.17648.34823.34724.1296.48212.26435.18909.54057.34545.80943.53086.22585.1744.46454.23384.75141.20469.24751-.01393.48448.00183.45035-.2705.0008-.04112.10522-.08167.14912-.11231.06163-.0511.11866-.08681.18066-.13762-.15123.00468-.23486.0502-.35149.05494-.09508.00963-.24662.01366-.29324-.0228-.25371-.18739-.48427-.37081-.71504-.58151-.01612-.02096-.02504-.09851.00381-.14946.04067-.18972.08355-.37885.15649-.55129.06521-.1832-.07036-.25294-.2648-.28918-.18091-.0413-.36978-.09354-.59981-.15839.06442-.04914.08177-.09492.12183-.10894.30968-.26724.32309-.45501.06814-.84963-.04356-.06341-.02865-.21151.04482-.24922.22431-.17961.10485-.33225-.06044-.50883-.04821-.04837-.08285-.10125-.1444-.17096.35812-.05279.70677-.06778.69255-.44373.00674-.29399-.04259-.52785-.48845-.67616.28362-.06427.5191-.1015.76879-.16901-.18938-.1766-.21638-.32996-.03833-.4352.06258-.05684.07969-.1361.10299-.20541.15763-.35748.0403-.69916-.15525-1.05439-.11701-.18398-.05606-.33526.09652-.46378.18757-.15109.38934-.30564.55417-.47216.09857-.1119.13533-.25279.1354-.40659.0407-.16532-.00586-.35221.04324-.50669.06647-.18262.14268-.37791-.01856-.55535-.35521-.39284-.32253-.77401-.0588-1.16141.0428-.07932.09532-.17263.11623-.26909.102-.23064.04786-.4768-.17964-.59163-.46862-.26053-.96506-.41923-1.51514-.3524-.30087.04513-.57988.02726-.86147-.08425-.22771-.0886-.49439-.20572-.75725-.00959.03919-.40476-.14773-.70054-.44792-.94264-.09102-.05149-.25167-.13593-.34682-.10571-.58843.17423-1.10273-.09021-1.62796-.2669-.04567-.00348-.07591-.05726-.08859-.10234-.15275-.27992-.25205-.32204-.54054-.12885-.27354.19117-.5579.0745-.83126.04907-.13992-.02372-.2687-.06205-.38023-.09149.03369.1271.05408.25625.08929.38291.00332.01182-.00809.02562.00157.06024-.05955-.00166-.14462.0132-.151-.00996-.05243-.1886-.10314-.37743-.15206-.56649-.3302.32047-.70246.54207-.71795 1.01157-.40083-.26171-.40345-.27573-.81137-.03256-.13613.0977-.24141.04124-.35903-.06349-.32335-.25693-.36-.62516-.44372-.97182-.07474-.37307-.14077-.41294-.50896-.28418-.05666.00834-.09656.02664-.12506.03085C9.66542 26.10955 9.56294 26.112 9.4632 26.12649c-.00766-.09919-.01542-.19798-.01956-.28499.01841-.3152.04148-.63.06668-.95632-.44395.0451-.54339.14487-.56213.48611.00257.08717-.00913.23959-.06358.25965-.16519.06767-.33579.18202-.51184.18731.0065.14529.01471.29014.02463.43451.1917.02498.36822.10802.55599.21237C9.1047 26.544 9.28458 26.61757 9.46444 26.62827z"/><path fill="#384e85" d="M36.37003,10.03371c2.89313,3.19482,4.67053,7.41889,4.67053,12.06848      c0,9.94458-8.06158,18.00616-18.00616,18.00616c-3.70502,0-7.14691-1.12158-10.0097-3.0401      c3.29468,3.63824,8.04071,5.93768,13.33563,5.93768c9.94452,0,18.00616-8.06165,18.00616-18.00616      C44.36649,18.76027,41.19114,13.2646,36.37003,10.03371z" opacity=".3"/><path fill="#6bb5fb" d="M8.47893,23.20046c0.3446-0.46021,0.37433-0.4591,0.97023-0.21301      c0.0922,0.03978,0.22082,0.02602,0.30446,0.00446c0.15241-0.05278,0.21746,0.00149,0.23605,0.1342      c0.03866,0.06877,0.02231,0.1565,0.06319,0.23791c0.08885,0.30854,0.27658,0.46988,0.58549,0.49292      c-0.11486-0.2539-0.22267-0.48549-0.31708-0.7431c-0.04238-0.09293-0.07138-0.19962-0.06989-0.29702      c0.02379-0.36839,0.19145-0.67693,0.49664-0.92377c0.27694-0.24385,0.32453-0.48734,0.18289-0.81112      c-0.03606-0.09293-0.06988-0.16208-0.12007-0.25427c0.08104-0.06654,0.1643-0.10966,0.23159-0.17509      c0.26877-0.26096,0.584-0.49961,0.79998-0.77581c0.20185-0.26282,0.42489-0.43159,0.74905-0.57062      c0.0316,0.10297,0.0632,0.18252,0.10967,0.26096c0.08549-0.00595,0.20036,0.00855,0.25612-0.03049      c0.27992-0.14869,0.53159-0.29404,0.79812-0.45092c0.14015-0.09033,0.16505-0.22936,0.0342-0.35835      c-0.04237,0.02566-0.08475,0.03978-0.12676,0.07732c-0.35055,0.25353-0.50928,0.23122-0.68697-0.12974      c-0.01488-0.06878-0.05874-0.14758-0.04461-0.20669c0.06877-0.31746-0.14238-0.43344-0.45538-0.45314      c-0.0145,0.00074-0.01413-0.02268-0.04201-0.07992c0.27025-0.01339,0.51225-0.03681,0.76839-0.0383      c0.24199-0.01226,0.49775,0.00893,0.76838,0.00558c-0.00409-0.09405,0.00855-0.17286,0.03941-0.23791      c0.27285-0.0342,0.58065-0.10557,0.77804-0.30185c0.03717-0.03717,0.37211-0.71894,0.16244-0.69143      c0.41003-0.05391,0.82005-0.10781,1.23045-0.16171c0.13717-0.01822,0.28884-0.04424,0.37397-0.15316      c0.06096-0.07806,0.07397-0.18215,0.08364-0.28103c0.05278-0.55314,0.07174-1.12748,0.20594-1.66129      c0.10706-0.17137,0.21077-0.34311,0.30482-0.52303c0.12639-0.20892,0.22416-0.29627,0.47211-0.25315      c0.23382,0.04312,0.41523-0.04498,0.61894-0.18512c0.2368-0.17286,0.49664-0.30111,0.78102-0.40705      c0.3762-0.14795,0.77098-0.23085,1.15834-0.35501c0.10409-0.03086,0.23977-0.08216,0.2472-0.12379      c0.04052-0.22973,0.22193-0.21709,0.43456-0.22565c0.01711-0.24906,0.03569-0.48771,0.05279-0.70593      c0.06431-0.04015,0.13791-0.12193,0.22118-0.18215c0.1855-0.14126,0.4223-0.25873,0.40148-0.4762      c-0.04833-0.21858-0.00819-0.38363,0.3985-0.4301c-0.21933-0.142-0.38883-0.25278-0.56913-0.37583      c0.62043-0.32639,1.18658-0.63716,1.73861-0.93157c-0.24757-0.16654-1.20554-0.17732-1.59921,0.00855      c-0.24386,0.11078-0.27211,0.10966-0.39478-0.00334c0.25612-0.15316,0.49366-0.28475,0.75128-0.43493      c-0.42378-0.18587-0.82415-0.35389-1.22227-0.52563c-0.01859-0.00149-0.0368-0.00298-0.05539-0.00447      c-0.26281-0.01524-0.51969-0.0368-0.7773-0.05613c-0.39952,0.15613-0.90217,0.38289-1.42795,0.63107      c-5.39726,2.67314-9.26212,7.97297-9.92404,14.22849c-0.0042,0.04009-0.00825,0.07947-0.01201,0.11734H8.47893z"/><path fill="#b7c5fd" d="M43.1653,18.59091c0.13934,0.36578,0.25964,0.73999,0.37549,1.1167    c5.78375,2.47046,4.88995,6.09327-2.71265,8.27003c-8.66602,2.48114-22.81134,2.48114-31.53399,0.00006    c-8.72272-2.48114-8.7688-6.76728-0.10284-9.24842c0.11139-0.03192,0.2337-0.05865,0.34686-0.08972    c0.11548-0.30579,0.2442-0.60468,0.37561-0.90228c-0.77399,0.17322-1.5285,0.35657-2.24005,0.5603    c-9.50134,2.72034-9.45081,7.14203,0.11267,9.8623c9.5567,2.71838,25.05798,2.72028,34.55933-0.00006    C51.51113,25.53568,51.75429,21.32529,43.1653,18.59091z"/><path fill="#b7c5fd" d="M40.67619,35.86446c-0.06451,0.09003-0.1225,0.18561-0.18866,0.27423    c1.11182,4.21216-2.15015,5.31763-8.36176,2.18274c-8.04736-4.0614-18.43359-13.66437-23.15387-21.40771    c-4.72021-7.74347-1.76282-10.76074,6.28461-6.69934c0.15723,0.07941,0.31903,0.16992,0.4798,0.25787    c0.23401-0.17181,0.47485-0.33435,0.71723-0.49487c-0.68347-0.39819-1.36041-0.7782-2.01825-1.11023    C5.61216,4.41432,2.64744,7.69527,7.82267,16.18501c5.17163,8.48383,16.55212,19.00873,25.37524,23.46155    c7.79724,3.93512,11.00488,1.81189,8.06903-4.59729C41.07823,35.32765,40.87974,35.59743,40.67619,35.86446z"/><path fill="#b7c5fd" d="M26.99947,6.30203c-0.20709,0.2179-0.40997,0.46021-0.61456,0.69336    c0.50403,0.00073,1.00043,0.03119,1.49286,0.07532c5.67785-5.26929,10.37776-2.38657,10.19105,6.54427    c-0.19666,9.40735-5.33673,22.30023-11.45862,28.742c-5.47168,5.75757-10.25025,4.12601-10.98951-2.93533    c-0.40723-0.30334-0.80243-0.62128-1.18219-0.95715c0.02301,9.75769,5.21436,12.13861,11.77905,5.23083    c6.70727-7.05768,12.34234-21.1853,12.55798-31.49939C38.99105,1.88913,33.70662-0.75564,26.99947,6.30203z"/><path fill="#b7c5fd" d="M41.00759,14.5784c0.21735,0.30579,0.42584,0.61737,0.62421,0.93689    c5.44904,0.18713,5.88066,3.57747,0.22544,8.23952c-6.68304,5.5094-19.14484,10.93439-27.78094,12.09387    c-7.88532,1.05865-10.01524-1.95747-5.218-6.65627c-0.07764-0.32263-0.14227-0.64978-0.20221-0.979    c-7.03711,5.92145-5.24493,9.69849,4.11481,8.44184c9.46185-1.27032,23.11896-7.21362,30.44617-13.25409    C50.08455,17.73972,48.97805,13.97586,41.00759,14.5784z"/><circle cx="18.123" cy="35.577" r="1.079" fill="#384e85"/><circle cx="5.028" cy="27.019" r="1.576" fill="#384e85"/><circle cx="13.025" cy="8.762" r="1.079" fill="#384e85"/><circle cx="38.39" cy="13.368" r="1.576" fill="#384e85"/><circle cx="34.682" cy="29.335" r="1.121" fill="#384e85"/><circle cx="47.46" cy="25" r="1.576" fill="#384e85"/><circle cx="23.809" cy="45.301" r="1.576" fill="#384e85"/></svg>