<svg xmlns="http://www.w3.org/2000/svg" viewBox="0 0 50 50"><path fill="#1b2a4f" d="m25.543 15.388 13.183-6.969-.016 32.197-13.183 7.661z"/><path fill="#384e85" d="M12.694 8.661 25.876 1l12.85 7.419-13.183 7.661z"/><path fill="#2e4277" d="m25.543 16.08-.016 32.197-12.85-7.419.017-32.197z"/><path fill="#384e85" d="m14.245 10.454-.775-.447-.016 30.403 11.296 6.522.001-.97-10.52-6.074z"/><path fill="#1b2a4f" d="m14.245 10.454-.014 29.434 10.52 6.074.015-29.434z"/><path fill="#2e4277" d="m23.972 17.628-.011 3.489-8.667-5.004.011-3.488z"/><path fill="#3955d1" d="m17.399 14.861.313-.182-.011 2.244-.313.182z"/><path fill="#6bb5fb" d="m16.85 14.544.313-.182.549.317-.313.182z"/><path fill="#4466fb" d="m17.399 14.861-.011 2.244-.549-.317.011-2.244z"/><path fill="#3955d1" d="m18.519 15.507.313-.182-.011 2.245-.313.182z"/><path fill="#6bb5fb" d="m17.97 15.19.313-.182.549.317-.313.182z"/><path fill="#4466fb" d="m18.519 15.507-.011 2.245-.549-.317.011-2.245z"/><path fill="#3955d1" d="m19.64 16.154.313-.182-.012 2.244-.313.182z"/><path fill="#6bb5fb" d="m19.091 15.837.313-.182.549.317-.313.182z"/><path fill="#4466fb" d="m19.64 16.154-.012 2.244-.549-.317.012-2.244z"/><path fill="#3955d1" d="m20.76 16.801.313-.182-.012 2.244-.313.182z"/><path fill="#6bb5fb" d="m20.211 16.484.313-.182.549.317-.313.182z"/><path fill="#4466fb" d="m20.76 16.801-.012 2.244-.549-.317.012-2.244z"/><path fill="#3955d1" d="m21.88 17.448.313-.182-.011 2.244-.314.182z"/><path fill="#6bb5fb" d="m21.331 17.131.313-.182.549.317-.313.182z"/><path fill="#4466fb" d="m21.88 17.448-.012 2.244-.549-.317.012-2.244z"/><path fill="#3955d1" d="m23 18.094.313-.182-.011 2.245-.313.182z"/><path fill="#6bb5fb" d="m22.451 17.777.313-.182.549.317-.313.182z"/><path fill="#4466fb" d="m23 18.094-.011 2.245-.549-.317.011-2.245z"/><path fill="#3955d1" d="m16.279 14.214.313-.182-.011 2.244-.313.182z"/><path fill="#6bb5fb" d="m15.73 13.897.313-.182.549.317-.313.182z"/><path fill="#4466fb" d="m16.279 14.214-.011 2.244-.549-.317.011-2.244z"/><path fill="#2e4277" d="m23.972 22.269-.011 3.489-8.667-5.004.011-3.488z"/><path fill="#3955d1" d="m17.399 19.501.313-.181-.011 2.244-.313.182z"/><path fill="#6bb5fb" d="m16.85 19.184.313-.181.549.317-.313.181z"/><path fill="#4466fb" d="m17.399 19.501-.011 2.245-.549-.317.011-2.245z"/><path fill="#3955d1" d="m18.519 20.148.313-.182-.011 2.245-.313.181z"/><path fill="#6bb5fb" d="m17.97 19.831.313-.182.549.317-.313.182z"/><path fill="#4466fb" d="m18.519 20.148-.011 2.244-.549-.316.011-2.245z"/><path fill="#3955d1" d="m19.64 20.795.313-.182-.012 2.244-.313.182z"/><path fill="#6bb5fb" d="m19.091 20.478.313-.182.549.317-.313.182z"/><path fill="#4466fb" d="m19.64 20.795-.012 2.244-.549-.317.012-2.244z"/><path fill="#3955d1" d="m20.76 21.442.313-.182-.012 2.244-.313.182z"/><path fill="#6bb5fb" d="m20.211 21.125.313-.182.549.317-.313.182z"/><path fill="#4466fb" d="m20.76 21.442-.012 2.244-.549-.317.012-2.244z"/><path fill="#3955d1" d="m21.88 22.088.313-.182-.011 2.245-.314.182z"/><path fill="#6bb5fb" d="m21.331 21.771.313-.182.549.317-.313.182z"/><path fill="#4466fb" d="m21.88 22.088-.012 2.245-.549-.317.012-2.245z"/><path fill="#3955d1" d="m23 22.735.313-.182-.011 2.244-.313.182z"/><path fill="#6bb5fb" d="m22.451 22.418.313-.182.549.317-.313.182z"/><path fill="#4466fb" d="m23 22.735-.011 2.244-.549-.317.011-2.244z"/><path fill="#3955d1" d="m16.279 18.855.313-.182-.011 2.244-.313.182z"/><path fill="#6bb5fb" d="m15.73 18.538.313-.182.549.317-.313.182z"/><path fill="#4466fb" d="m16.279 18.855-.011 2.244-.549-.317.011-2.244z"/><path fill="#2e4277" d="m23.972 26.91-.011 3.489-8.667-5.004.011-3.489z"/><path fill="#3955d1" d="m17.399 24.142.313-.182-.011 2.245-.313.182z"/><path fill="#6bb5fb" d="m16.85 23.825.313-.182.549.317-.313.182z"/><path fill="#4466fb" d="m17.399 24.142-.011 2.245-.549-.317.011-2.245z"/><path fill="#3955d1" d="m18.519 24.789.313-.182-.011 2.244-.313.182z"/><path fill="#6bb5fb" d="m17.97 24.472.313-.182.549.317-.313.182z"/><path fill="#4466fb" d="m18.519 24.789-.011 2.244-.549-.317.011-2.244z"/><path fill="#3955d1" d="m19.64 25.436.313-.182-.012 2.244-.313.182z"/><path fill="#6bb5fb" d="m19.091 25.119.313-.182.549.317-.313.182z"/><path fill="#4466fb" d="m19.64 25.436-.012 2.244-.549-.317.012-2.244z"/><path fill="#3955d1" d="m20.76 26.083.313-.182-.012 2.244-.313.182z"/><path fill="#6bb5fb" d="m20.211 25.766.313-.182.549.317-.313.182z"/><path fill="#4466fb" d="m20.76 26.083-.012 2.244-.549-.317.012-2.244z"/><path fill="#3955d1" d="m21.88 26.729.313-.182-.011 2.245-.314.182z"/><path fill="#6bb5fb" d="m21.331 26.412.313-.182.549.317-.313.182z"/><path fill="#4466fb" d="m21.88 26.729-.012 2.245-.549-.317.012-2.245z"/><path fill="#3955d1" d="m23 27.376.313-.182-.011 2.244-.313.182z"/><path fill="#6bb5fb" d="m22.451 27.059.313-.182.549.317-.313.182z"/><path fill="#4466fb" d="m23 27.376-.011 2.244-.549-.317.011-2.244z"/><path fill="#3955d1" d="m16.279 23.496.313-.182-.011 2.244-.313.182z"/><path fill="#6bb5fb" d="m15.73 23.179.313-.182.549.317-.313.182z"/><path fill="#4466fb" d="m16.279 23.496-.011 2.244-.549-.317.011-2.244z"/><path fill="#2e4277" d="m23.972 31.551-.011 3.489-8.667-5.004.011-3.489z"/><path fill="#3955d1" d="m17.399 28.783.313-.182-.011 2.245-.313.182z"/><path fill="#6bb5fb" d="m16.85 28.466.313-.182.549.317-.313.182z"/><path fill="#4466fb" d="m17.399 28.783-.011 2.245-.549-.317.011-2.245z"/><path fill="#3955d1" d="m18.519 29.43.313-.182-.011 2.244-.313.182z"/><path fill="#6bb5fb" d="m17.97 29.113.313-.182.549.317-.313.182z"/><path fill="#4466fb" d="m18.519 29.43-.011 2.244-.549-.317.011-2.244z"/><path fill="#3955d1" d="m19.64 30.077.313-.182-.012 2.244-.313.182z"/><path fill="#6bb5fb" d="m19.091 29.76.313-.182.549.317-.313.182z"/><path fill="#4466fb" d="m19.64 30.077-.012 2.244-.549-.317.012-2.244z"/><path fill="#3955d1" d="m20.76 30.724.313-.182-.012 2.244-.313.182z"/><path fill="#6bb5fb" d="m20.211 30.407.313-.182.549.317-.313.182z"/><path fill="#4466fb" d="m20.76 30.724-.012 2.244-.549-.317.012-2.244z"/><path fill="#3955d1" d="m21.88 31.37.313-.182-.011 2.245-.314.182z"/><path fill="#6bb5fb" d="m21.331 31.053.313-.182.549.317-.313.182z"/><path fill="#4466fb" d="m21.88 31.37-.012 2.245-.549-.317.012-2.245z"/><path fill="#3955d1" d="m23 32.017.313-.182-.011 2.244-.313.182z"/><path fill="#6bb5fb" d="m22.451 31.7.313-.182.549.317-.313.182z"/><path fill="#4466fb" d="m23 32.017-.011 2.244-.549-.317.011-2.244z"/><path fill="#3955d1" d="m16.279 28.137.313-.182-.011 2.244-.313.182z"/><path fill="#6bb5fb" d="m15.73 27.82.313-.182.549.317-.313.182z"/><path fill="#4466fb" d="m16.279 28.137-.011 2.244-.549-.317.011-2.244z"/><path fill="#2e4277" d="m23.972 36.192-.011 3.489-8.667-5.004.011-3.489z"/><path fill="#3955d1" d="m17.399 33.424.313-.182-.011 2.245-.313.181z"/><path fill="#6bb5fb" d="m16.85 33.107.313-.182.549.317-.313.182z"/><path fill="#4466fb" d="m17.399 33.424-.011 2.244-.549-.316.011-2.245z"/><path fill="#3955d1" d="m18.519 34.071.313-.182-.011 2.244-.313.182z"/><path fill="#6bb5fb" d="m17.97 33.754.313-.182.549.317-.313.182z"/><path fill="#4466fb" d="m18.519 34.071-.011 2.244-.549-.317.011-2.244z"/><path fill="#3955d1" d="m19.64 34.718.313-.182-.012 2.244-.313.182z"/><path fill="#6bb5fb" d="m19.091 34.401.313-.182.549.317-.313.182z"/><path fill="#4466fb" d="m19.64 34.718-.012 2.244-.549-.317.012-2.244z"/><path fill="#3955d1" d="m20.76 35.364.313-.182-.012 2.245-.313.182z"/><path fill="#6bb5fb" d="m20.211 35.047.313-.182.549.317-.313.182z"/><path fill="#4466fb" d="m20.76 35.364-.012 2.245-.549-.317.012-2.245z"/><path fill="#3955d1" d="m21.88 36.011.313-.182-.011 2.244-.314.182z"/><path fill="#6bb5fb" d="m21.331 35.694.313-.182.549.317-.313.182z"/><path fill="#4466fb" d="m21.88 36.011-.012 2.244-.549-.317.012-2.244z"/><path fill="#3955d1" d="m23 36.658.313-.182-.011 2.244-.313.182z"/><path fill="#6bb5fb" d="m22.451 36.341.313-.182.549.317-.313.182z"/><path fill="#4466fb" d="m23 36.658-.011 2.244-.549-.317.011-2.244z"/><path fill="#3955d1" d="m16.279 32.777.313-.181-.011 2.244-.313.182z"/><path fill="#6bb5fb" d="m15.73 32.46.313-.181.549.317-.313.181z"/><path fill="#4466fb" d="m16.279 32.777-.011 2.245-.549-.317.011-2.245z"/><path fill="#2e4277" d="m23.972 40.833-.011 3.488-8.667-5.003.011-3.489z"/><path fill="#3955d1" d="m17.399 38.065.313-.182-.011 2.244-.313.182z"/><path fill="#6bb5fb" d="m16.85 37.748.313-.182.549.317-.313.182z"/><path fill="#4466fb" d="m17.399 38.065-.011 2.244-.549-.317.011-2.244z"/><path fill="#3955d1" d="m18.519 38.712.313-.182-.011 2.244-.313.182z"/><path fill="#6bb5fb" d="m17.97 38.395.313-.182.549.317-.313.182z"/><path fill="#4466fb" d="m18.519 38.712-.011 2.244-.549-.317.011-2.244z"/><path fill="#3955d1" d="m19.64 39.359.313-.182-.012 2.244-.313.182z"/><path fill="#6bb5fb" d="m19.091 39.042.313-.182.549.317-.313.182z"/><path fill="#4466fb" d="m19.64 39.359-.012 2.244-.549-.317.012-2.244z"/><path fill="#3955d1" d="m20.76 40.005.313-.182-.012 2.245-.313.182z"/><path fill="#6bb5fb" d="m20.211 39.688.313-.182.549.317-.313.182z"/><path fill="#4466fb" d="m20.76 40.005-.012 2.245-.549-.317.012-2.245z"/><path fill="#3955d1" d="m21.88 40.652.313-.182-.011 2.244-.314.182z"/><path fill="#6bb5fb" d="m21.331 40.335.313-.182.549.317-.313.182z"/><path fill="#4466fb" d="m21.88 40.652-.012 2.244-.549-.317.012-2.244z"/><path fill="#3955d1" d="m23 41.299.313-.182-.011 2.244-.313.182z"/><path fill="#6bb5fb" d="m22.451 40.982.313-.182.549.317-.313.182z"/><path fill="#4466fb" d="m23 41.299-.011 2.244-.549-.317.011-2.244z"/><path fill="#3955d1" d="m16.279 37.418.313-.182-.011 2.245-.313.182z"/><path fill="#6bb5fb" d="m15.73 37.101.313-.182.549.317-.313.182z"/><path fill="#4466fb" d="m16.279 37.418-.011 2.245-.549-.317.011-2.245z"/><path fill="#384e85" d="M35.637 39.9a.187.187 0 0 0-.085.146c0 .054.039.076.085.049l2.058-1.188a.187.187 0 0 0 .084-.147c0-.053-.038-.075-.084-.049L35.637 39.9zm-.002-.454a.187.187 0 0 0-.084.147c0 .053.039.075.085.049l2.058-1.189a.187.187 0 0 0 .084-.146c0-.054-.038-.076-.085-.05l-2.058 1.19zm0-.452a.185.185 0 0 0-.085.146c0 .053.038.075.085.048L37.692 38a.187.187 0 0 0 .085-.146c0-.054-.039-.075-.085-.048l-2.058 1.188zm-.002-.454a.185.185 0 0 0-.085.146c0 .053.039.075.085.049l2.058-1.189a.187.187 0 0 0 .085-.146c0-.054-.039-.075-.085-.048l-2.058 1.188zm-.003-.907a.185.185 0 0 0-.084.146c0 .053.038.075.085.049l2.058-1.189a.187.187 0 0 0 .084-.146c0-.054-.039-.075-.085-.048l-2.058 1.188zm.002.454a.185.185 0 0 0-.085.146c0 .053.039.075.085.048l2.058-1.188a.187.187 0 0 0 .084-.146c0-.054-.038-.075-.085-.048l-2.057 1.188zm.005-2.315a.187.187 0 0 0-.085.146c0 .054.039.076.085.05l2.058-1.189a.187.187 0 0 0 .084-.147c0-.053-.038-.075-.084-.048l-2.058 1.188zm-.002-.454a.187.187 0 0 0-.084.147c0 .054.039.075.085.049l2.058-1.188a.187.187 0 0 0 .084-.146c0-.055-.038-.077-.085-.05l-2.058 1.188zm0-.452a.185.185 0 0 0-.085.146c0 .053.038.075.085.048l2.057-1.188a.187.187 0 0 0 .085-.146c0-.054-.039-.075-.085-.048l-2.058 1.188zm-.002-.454a.185.185 0 0 0-.085.146c0 .054.039.075.085.049l2.058-1.188a.187.187 0 0 0 .085-.146c0-.055-.039-.075-.085-.049l-2.058 1.188zm-.003-.907a.185.185 0 0 0-.084.146c0 .054.038.075.085.049l2.058-1.188a.187.187 0 0 0 .084-.146c0-.055-.039-.075-.085-.049l-2.058 1.188zm.002.454a.185.185 0 0 0-.085.146c0 .053.039.075.085.048l2.058-1.188a.187.187 0 0 0 .084-.146c0-.054-.038-.075-.085-.048l-2.057 1.188zm.005-2.315a.187.187 0 0 0-.085.146c0 .054.039.076.085.05l2.058-1.189a.187.187 0 0 0 .084-.147c0-.053-.038-.075-.084-.048l-2.058 1.188zm-.002-.454a.187.187 0 0 0-.084.148c0 .053.039.075.085.048l2.058-1.188a.187.187 0 0 0 .084-.146c0-.055-.038-.076-.085-.05l-2.058 1.188zm0-.452a.185.185 0 0 0-.085.146c0 .053.038.075.085.048l2.057-1.188a.187.187 0 0 0 .085-.146c0-.054-.039-.075-.085-.048l-2.058 1.188zm-.002-.453a.185.185 0 0 0-.085.146c0 .053.039.075.085.048l2.058-1.188a.187.187 0 0 0 .085-.146c0-.055-.039-.075-.085-.049l-2.058 1.189zm-.003-.907a.185.185 0 0 0-.084.146c0 .053.038.075.085.048l2.058-1.188a.187.187 0 0 0 .084-.146c0-.055-.039-.075-.085-.049l-2.058 1.189zm.002.453a.185.185 0 0 0-.085.146c0 .053.039.075.085.048l2.058-1.188a.187.187 0 0 0 .084-.146c0-.054-.038-.075-.085-.048l-2.057 1.188zm.005-2.315a.187.187 0 0 0-.085.146c0 .054.039.076.085.05l2.058-1.189a.187.187 0 0 0 .084-.147c0-.053-.038-.075-.084-.048l-2.058 1.188zm-.002-.453a.187.187 0 0 0-.084.147c0 .053.039.075.085.048l2.058-1.188a.187.187 0 0 0 .084-.146c0-.054-.038-.076-.085-.05l-2.058 1.189zm0-.453a.185.185 0 0 0-.085.146c0 .053.038.075.085.049l2.057-1.188a.187.187 0 0 0 .085-.146c0-.055-.039-.076-.085-.049l-2.058 1.188zm-.002-.453a.185.185 0 0 0-.085.146c0 .053.039.075.085.048l2.058-1.188a.187.187 0 0 0 .085-.146c0-.054-.039-.075-.085-.048l-2.058 1.188zm-.003-.907a.185.185 0 0 0-.084.146c0 .053.038.075.085.048l2.058-1.188a.187.187 0 0 0 .084-.146c0-.054-.039-.075-.085-.048L35.63 25.25zm.002.453a.185.185 0 0 0-.085.146c0 .053.039.075.085.049l2.058-1.188a.187.187 0 0 0 .084-.147c0-.054-.038-.075-.085-.048l-2.057 1.188zm.005-2.315a.187.187 0 0 0-.085.146c0 .055.039.077.085.05l2.058-1.188a.187.187 0 0 0 .084-.148c0-.053-.038-.075-.084-.048l-2.058 1.188zm-.002-.453a.187.187 0 0 0-.084.147c0 .053.039.075.085.048l2.058-1.188a.187.187 0 0 0 .084-.146c0-.054-.038-.076-.085-.05l-2.058 1.189zm0-.453a.185.185 0 0 0-.085.146c0 .054.038.076.085.049l2.057-1.188a.187.187 0 0 0 .085-.146c0-.055-.039-.075-.085-.049l-2.058 1.188zm-.002-.453a.185.185 0 0 0-.085.146c0 .053.039.075.085.048l2.058-1.188a.187.187 0 0 0 .085-.146c0-.054-.039-.075-.085-.048l-2.058 1.188zm-.003-.907a.185.185 0 0 0-.084.146c0 .053.038.075.085.048l2.058-1.188a.187.187 0 0 0 .084-.146c0-.054-.039-.075-.085-.048l-2.058 1.188zm.002.453a.185.185 0 0 0-.085.146c0 .054.039.076.085.049l2.058-1.188a.187.187 0 0 0 .084-.146c0-.055-.038-.075-.085-.049l-2.057 1.188zm.005-2.315a.187.187 0 0 0-.085.146c0 .055.039.077.085.05l2.058-1.188a.187.187 0 0 0 .084-.147c0-.054-.038-.075-.084-.049l-2.058 1.188zm-.002-.453a.187.187 0 0 0-.084.147c0 .053.039.075.085.048l2.058-1.188a.187.187 0 0 0 .084-.146c0-.054-.038-.076-.085-.05l-2.058 1.189zm0-.452a.185.185 0 0 0-.085.146c0 .053.038.075.085.048l2.057-1.188a.187.187 0 0 0 .085-.146c0-.055-.039-.075-.085-.048l-2.058 1.188zm-.002-.454a.185.185 0 0 0-.085.146c0 .053.039.075.085.048l2.058-1.188a.187.187 0 0 0 .085-.146c0-.054-.039-.075-.085-.048l-2.058 1.188zm-.003-.907a.185.185 0 0 0-.084.146c0 .053.038.075.085.048L37.689 16a.187.187 0 0 0 .084-.146c0-.054-.039-.075-.085-.048l-2.058 1.188zm.002.454a.185.185 0 0 0-.085.146c0 .053.039.075.085.048l2.058-1.188a.187.187 0 0 0 .084-.146c0-.054-.038-.075-.085-.048l-2.057 1.188zm.005-2.315a.187.187 0 0 0-.085.146c0 .054.039.076.085.05l2.058-1.189a.187.187 0 0 0 .084-.147c0-.053-.038-.075-.084-.048l-2.058 1.188zm-.002-.454a.187.187 0 0 0-.084.147c0 .054.039.075.085.049l2.058-1.188a.187.187 0 0 0 .084-.146c0-.055-.038-.077-.085-.05l-2.058 1.188zm0-.452a.185.185 0 0 0-.085.146c0 .053.038.075.085.048l2.057-1.188a.187.187 0 0 0 .085-.146c0-.054-.039-.075-.085-.048l-2.058 1.188zm-.002-.454a.185.185 0 0 0-.085.146c0 .054.039.075.085.049l2.058-1.188a.187.187 0 0 0 .085-.146c0-.055-.039-.076-.085-.049l-2.058 1.188zm-.003-.907a.185.185 0 0 0-.084.146c0 .054.038.075.085.049l2.058-1.188a.187.187 0 0 0 .084-.146c0-.055-.039-.076-.085-.049l-2.058 1.188zm.002.454a.185.185 0 0 0-.085.146c0 .053.039.075.085.048l2.058-1.188a.187.187 0 0 0 .084-.146c0-.054-.038-.075-.085-.048l-2.057 1.188z"/><path fill="#1b2a4f" d="m24.299 16.803 1.244-.723-.016 32.197-1.244.723zM11.45 9.384l1.244-.723 12.849 7.419-1.244.723z"/><path fill="#2e4277" d="m11.454 9.387-.019 32.196 12.846 7.415.018-32.195-12.845-7.416zm11.342 35.65-10.032-5.792.009-28.232 10.04 5.792-.017 28.232z"/><path fill="#4466fb" d="m12.777 11.011-.014 29.452 10.032 5.792.014-29.452z" opacity=".3"/><path fill="#4466fb" d="m15.126 41.828 7.673-4.283v-1.002l-8.698 4.693zM12.763 40.463l.198.115L22.8 35.43l.001-2.535-10.037 5.227zM22.805 26.085l-10.038 4.01v1.002l10.037-4.01zM22.806 22.437l-10.037 4.01-.001 2.534 10.037-4.01zM21.605 16.107l-8.833 3.529v1.002l9.859-3.939zM17.871 13.952l-5.097 2.036-.001 2.535 7.692-3.074z" opacity=".3"/><path fill="#b7c5fd" d="m23.993 32.698-.564.325c-.04.024-.075.025-.102.01l-.328-.19.001.264c.001.134.048.23.126.275l-.473-.275c-.076-.046-.125-.14-.125-.275l-.004-2.233a.936.936 0 0 1 .427-.739l.564-.325.471.273-.562.326a.942.942 0 0 0-.428.74L23 32.724l.521-.301.473.274z"/><path fill="#798ffe" d="M23.987 29.809v.327l-.563.326a.313.313 0 0 0-.142.246l.004 2.234c0 .09.064.127.143.081l.564-.325v.328l-.563.326c-.236.136-.429.025-.43-.245l-.003-2.234a.94.94 0 0 1 .426-.739l.564-.325z"/></svg>