<svg xmlns="http://www.w3.org/2000/svg" viewBox="0 0 50 50"><path fill="#2e4277" d="m14.169 11.608-.071 30.41-1.026.596.071-30.41z"/><path fill="#384e85" d="m10.798 40.709.07-30.41c0 .295.952 1.043 2.275 1.905l-.071 30.41c-1.323-.862-2.275-1.61-2.274-1.905z"/><path fill="#1b2a4f" d="m21.452 15.813-.071 30.41-7.283-4.205.071-30.41z"/><path fill="#3955d1" d="m21.452 17.687-.008.933-7.283-4.205.008-.933zM21.452 20.104l-.008.933-7.283-4.205.008-.933zM21.452 22.52l-.008.934-7.283-4.205.008-.934zM21.452 24.937l-.008.934-7.283-4.205.008-.934zM21.452 27.354l-.008.933-7.283-4.205.008-.933z"/><path fill="#2e4277" d="m19.585 28.751-.005.587-4.188-2.419.005-.587zM19.585 30.132l-.005.586-4.188-2.418.005-.587zM19.585 32.893l-.005.587-4.188-2.418.005-.587zM19.585 31.512l-.005.587-4.188-2.418.005-.587zM19.585 35.655l-.005.587-4.188-2.419.005-.587zM19.585 34.274l-.005.587-4.188-2.419.005-.586zM19.585 37.036l-.005.586-4.188-2.418.005-.587zM39.758 8.464l-.071 31.006-15.868 9.222.071-31.686z"/><path fill="#384e85" d="m23.89 17.686-.071 30.41c-.309.18-1.954-.506-3.457-1.281l.07-30.41c1.696.874 3.139 1.466 3.458 1.281z"/><path fill="#384e85" d="M39.758 8.464 23.89 17.686c-.32.185-1.762-.407-3.458-1.281l1.02-.592-7.283-4.205-1.026.596c-1.508-.983-2.535-1.817-2.217-2.002L26.795.98l12.963 7.484z"/><path fill="#4466fb" d="m14.169 13.482-.008.933-1.026.597.008-.934zM14.169 15.899l-.008.933-1.026.596.008-.933zM14.169 18.315l-.008.934-1.026.596.008-.933zM14.169 20.732l-.008.934-1.026.596.008-.934zM14.169 23.149l-.008.933-1.026.597.008-.934z"/><path fill="#6bb5fb" d="m10.86 13.106.008-.933c0 .296.952 1.043 2.275 1.905l-.008.934c-1.323-.863-2.276-1.61-2.275-1.906zm0 2.417.008-.933c0 .295.952 1.043 2.275 1.905l-.008.933c-1.323-.862-2.276-1.61-2.275-1.905zm0 2.417.008-.934c0 .296.952 1.044 2.275 1.906l-.008.933c-1.323-.862-2.276-1.61-2.275-1.905zm0 2.416.008-.933c0 .296.952 1.043 2.275 1.905l-.008.934c-1.323-.862-2.276-1.61-2.275-1.905zm0 2.417.008-.933c0 .296.952 1.043 2.275 1.905l-.008.934c-1.323-.862-2.276-1.61-2.275-1.906zm13.03-3.213-.008.9c-.309.178-1.954-.472-3.457-1.248l.007-.933c1.504.775 3.149 1.46 3.458 1.281zm0 2.417-.008.899c-.309.18-1.954-.471-3.457-1.247l.007-.933c1.504.775 3.149 1.46 3.458 1.28zm0 2.417-.008.899c-.309.179-1.954-.472-3.457-1.247l.007-.933c1.504.775 3.149 1.46 3.458 1.28zm0 2.416-.008.9c-.309.179-1.954-.472-3.457-1.247l.007-.934c1.504.776 3.149 1.46 3.458 1.281zm0 2.417-.008.9c-.309.179-1.954-.472-3.457-1.247l.007-.934c1.504.775 3.149 1.46 3.458 1.281z"/><path fill="#1b2a4f" d="m38.612 37.791-.415.238-.012-3.007.414-.238zM37.829 38.241l-.418.24-.013-3.007.418-.24zM37.043 38.693l-.415.237-.012-3.007.414-.237zM36.26 39.142l-.415.238-.012-3.007.414-.238zM35.477 39.592l-.418.24-.012-3.007.418-.24zM31.278 41.996l-.415.238-.012-3.007.414-.238zM30.495 42.446l-.418.239-.013-3.006.418-.24zM29.708 42.897l-.414.238-.013-3.007.415-.237zM28.926 43.347l-.415.238-.012-3.007.414-.238zM28.143 43.797l-.418.239-.013-3.006.419-.24zM38.612 32.235l-.415.238-.012-3.007.414-.237zM37.829 32.685l-.418.24-.013-3.007.418-.24zM37.043 33.137l-.415.237-.012-3.006.414-.238zM36.26 33.586l-.415.238-.012-3.007.414-.237zM35.477 34.036l-.418.24-.012-3.007.418-.24zM31.278 36.44l-.415.238-.012-3.007.414-.238zM30.495 36.89l-.418.24-.013-3.007.418-.24zM29.708 37.342l-.414.237-.013-3.007.415-.237zM28.926 37.791l-.415.238-.012-3.007.414-.238zM28.143 38.241l-.418.24-.013-3.007.419-.24zM23.201 18.086l1.245-.723-.016 30.894-1.244.723zM10.238 10.602l1.245-.723 12.963 7.484-1.245.723z"/><path fill="#2e4277" d="m10.242 10.605-.017 30.893 12.959 7.48.017-30.892-12.959-7.48zm11.524 35.76-10.034-5.792.008-28.239 10.044 5.793-.018 28.239z"/><path fill="#4466fb" d="m11.744 12.332-.013 28.242 10.034 5.794.014-28.243z" opacity=".3"/><path fill="#4466fb" d="m11.731 40.574.198.114 9.841-3.931.001-2.535-10.039 4.011z" opacity=".3"/><path fill="#b7c5fd" d="m22.963 33.931-.564.324c-.04.025-.075.026-.102.011l-.328-.19.001.264c.002.134.048.23.126.275l-.473-.275c-.076-.046-.125-.14-.125-.275l-.004-2.234a.937.937 0 0 1 .427-.739l.564-.325.472.273-.563.326a.942.942 0 0 0-.428.74l.003 1.852.521-.302.473.275z"/><path fill="#798ffe" d="m22.957 31.04.001.328-.564.326a.313.313 0 0 0-.142.246l.005 2.235c0 .09.063.127.142.081l.564-.326v.329l-.563.326c-.236.136-.429.025-.43-.245l-.003-2.235a.94.94 0 0 1 .426-.739l.564-.325z"/><path fill="#4466fb" d="m14.094 41.939 7.675-3.066V37.87l-8.7 3.477zM21.775 27.41l-10.04 4.011v1.002l10.039-4.011zM21.776 23.761l-10.039 4.011-.001 2.535 10.039-4.011zM20.575 17.43l-8.835 3.53v1.002l9.861-3.94zM16.84 15.274l-5.098 2.037-.001 2.535 7.694-3.074z" opacity=".3"/></svg>