<?xml version="1.0" standalone="no"?>
<!DOCTYPE svg PUBLIC "-//W3C//DTD SVG 20010904//EN"
 "http://www.w3.org/TR/2001/REC-SVG-20010904/DTD/svg10.dtd">
<svg version="1.0" xmlns="http://www.w3.org/2000/svg"
 width="500.000000pt" height="500.000000pt" viewBox="0 0 500.000000 500.000000"
 preserveAspectRatio="xMidYMid meet">
<metadata>
Created by potrace 1.14, written by Peter Selinger 2001-2017
</metadata>
<g transform="translate(0.000000,500.000000) scale(0.100000,-0.100000)"
fill="#000000" stroke="none">
<path d="M380 4984 c-90 -24 -161 -65 -230 -134 -68 -67 -106 -133 -134 -229
-14 -49 -16 -267 -15 -2120 0 -2250 -3 -2108 56 -2231 39 -82 136 -173 226
-215 41 -19 95 -39 120 -45 31 -6 725 -10 2100 -10 2248 0 2104 -4 2225 58
107 54 199 159 245 280 l22 57 0 2100 0 2100 -24 65 c-56 152 -159 255 -311
314 l-55 21 -2085 2 c-1803 1 -2092 0 -2140 -13z"/>
</g>
</svg>
